<?xml version="1.0" encoding="UTF-8"?>
<!DOCTYPE svg PUBLIC "-//W3C//DTD SVG 1.1//EN" "http://www.w3.org/Graphics/SVG/1.1/DTD/svg11.dtd">
<!-- Creator: CorelDRAW X7 -->
<svg xmlns="http://www.w3.org/2000/svg" xml:space="preserve" width="63.0707mm" height="30.725mm" version="1.1" style="shape-rendering:geometricPrecision; text-rendering:geometricPrecision; image-rendering:optimizeQuality; fill-rule:evenodd; clip-rule:evenodd"
viewBox="0 0 5502 2680"
 xmlns:xlink="http://www.w3.org/1999/xlink">
 <defs>
  <style type="text/css">
   <![CDATA[
    .fil2 {fill:#FCCBA0}
    .fil1 {fill:#FAAF73}
    .fil0 {fill:#F37935}
   ]]>
  </style>
 </defs>
 <g id="Camada_x0020_1">
  <metadata id="CorelCorpID_0Corel-Layer"/>
  <path class="fil0" d="M5502 2666l-168 0 0 -309c0,-80 -29,-119 -87,-119 -30,0 -54,11 -72,33 -19,22 -28,51 -28,85l0 310 -168 0 0 -805 168 0 0 342 2 0c41,-62 97,-94 168,-94 123,0 185,74 185,223l0 334zm-617 -6c-25,13 -62,20 -112,20 -118,0 -178,-62 -178,-185l0 -249 -88 0 0 -124 88 0 0 -117 168 -48 0 165 122 0 0 124 -122 0 0 220c0,57 22,85 67,85 18,0 36,-5 55,-15l0 124zm-516 -178c0,23 6,40 17,52 11,12 26,18 44,18 9,0 19,-1 28,-3 9,-1 18,-3 27,-5l0 118c-20,5 -41,10 -64,13 -22,3 -46,5 -70,5 -22,0 -43,-3 -61,-11 -18,-7 -34,-18 -47,-32 -13,-14 -23,-31 -30,-51 -7,-20 -10,-42 -10,-67l0 -658 166 0 0 621zm-453 -37l0 -36 -98 12c-55,7 -82,32 -82,74 0,19 6,35 20,47 13,12 31,19 54,19 31,0 57,-11 77,-33 19,-22 29,-49 29,-83zm158 221l-159 0 0 -78 -2 0c-36,61 -90,92 -162,92 -53,0 -94,-15 -125,-45 -30,-30 -45,-70 -45,-120 0,-106 63,-166 188,-183l147 -19c0,-60 -32,-90 -96,-90 -65,0 -127,20 -185,58l0 -126c23,-12 55,-23 96,-32 40,-9 77,-14 110,-14 155,0 233,78 233,232l0 325zm-708 -327c0,-78 -32,-117 -95,-117 -26,0 -50,11 -69,34 -20,22 -32,50 -36,83l200 0zm156 103l-355 0c5,79 55,119 149,119 60,0 112,-14 158,-43l0 121c-50,27 -116,41 -196,41 -88,0 -156,-25 -205,-73 -48,-49 -73,-117 -73,-204 0,-90 27,-162 79,-215 53,-53 117,-79 193,-79 80,0 141,24 185,71 43,47 65,111 65,192l0 70zm-647 224l-172 0 0 -310 -316 0 0 310 -171 0 0 -761 171 0 0 304 316 0 0 -235c56,22 113,40 172,52l0 640z"/>
  <path class="fil0" d="M1813 2183c-56,0 -100,19 -133,57 -32,38 -49,91 -49,158 0,64 17,115 50,152 33,37 77,56 132,56 56,0 100,-19 130,-55 30,-36 45,-88 45,-156 0,-68 -15,-120 -45,-157 -30,-37 -74,-55 -130,-55zm-6 496c-81,0 -145,-25 -193,-76 -48,-51 -72,-118 -72,-202 0,-92 25,-163 75,-214 50,-52 118,-77 203,-77 81,0 144,25 189,75 46,49 69,119 69,207 0,87 -25,157 -74,209 -49,52 -115,78 -197,78zm-308 -468c-15,-12 -37,-18 -66,-18 -37,0 -68,18 -93,53 -25,35 -37,83 -37,143l0 277 -88 0 0 -544 88 0 0 112 2 0c12,-38 31,-68 57,-89 25,-22 54,-32 85,-32 23,0 40,2 52,7l0 91zm-792 -226l0 313 94 0c61,0 108,-14 141,-43 32,-28 48,-68 48,-119 0,-100 -59,-151 -178,-151l-105 0zm0 393l0 288 -89 0 0 -761 209 0c82,0 145,19 190,59 44,40 67,96 67,168 0,72 -25,131 -75,177 -50,46 -117,69 -201,69l-101 0zm-322 -36c0,-50 -12,-89 -36,-117 -24,-28 -57,-42 -100,-42 -41,0 -76,15 -104,44 -29,29 -47,68 -54,115l294 0zm89 74l-384 0c2,61 18,107 49,140 31,33 74,50 129,50 61,0 117,-20 169,-61l0 82c-48,35 -111,52 -190,52 -77,0 -137,-25 -181,-74 -44,-49 -66,-119 -66,-208 0,-85 24,-154 72,-207 48,-54 108,-80 179,-80 71,0 126,23 165,69 39,46 58,110 58,191l0 46z"/>
  <path class="fil1" d="M2452 629l400 -143c23,-8 49,4 58,27l68 190c8,23 -4,49 -27,58l-400 143c-23,8 -49,-4 -58,-27l-68 -190c-8,-23 4,-49 27,-58z"/>
  <path class="fil2" d="M2967 445l400 -144c23,-8 49,4 57,28l68 189c9,24 -3,50 -27,58l-399 143c-24,9 -50,-4 -58,-27l-68 -190c-8,-23 4,-49 27,-57z"/>
  <path class="fil1" d="M2667 1227l399 -144c24,-8 50,4 58,28l68 189c8,24 -4,50 -27,58l-400 143c-23,9 -49,-3 -57,-27l-68 -190c-9,-23 3,-49 27,-57z"/>
  <path class="fil2" d="M3181 1042l400 -143c23,-9 49,4 58,27l68 190c8,23 -4,49 -27,57l-400 144c-23,8 -49,-4 -58,-27l-68 -190c-8,-23 4,-49 27,-58z"/>
  <path class="fil0" d="M2238 370c21,-4 42,8 50,29l68 190c8,23 -4,49 -27,57l-263 95c33,-134 91,-260 172,-371z"/>
  <path class="fil0" d="M2345 331l400 -144c23,-8 49,4 57,27l69 190c8,24 -4,49 -28,58l-399 143c-24,9 -50,-4 -58,-27l-68 -190c-8,-23 4,-49 27,-57z"/>
  <path class="fil0" d="M2860 146l400 -143c23,-9 49,4 57,27l68 190c9,23 -4,49 -27,57l-400 144c-23,8 -49,-4 -57,-28l-68 -189c-9,-24 4,-50 27,-58z"/>
  <path class="fil0" d="M2060 770l277 -99c24,-9 50,4 58,27l68 190c8,23 -4,49 -27,57l-396 142c-9,-107 -2,-214 20,-317z"/>
  <path class="fil0" d="M2045 1113l400 -144c23,-8 49,4 57,28l68 189c9,24 -4,50 -27,58l-400 143c-10,4 -20,4 -30,0 -5,-12 -10,-25 -15,-39 -27,-77 -46,-156 -55,-235l2 0z"/>
  <path class="fil0" d="M2560 928l399 -143c24,-9 49,4 58,27l68 190c8,23 -4,49 -27,57l-400 144c-23,8 -49,-4 -58,-28l-68 -189c-8,-24 4,-49 28,-58z"/>
  <path class="fil0" d="M3074 743l400 -143c23,-8 49,4 58,27l68 190c8,23 -4,49 -28,58l-399 143c-24,8 -49,-4 -58,-27l-68 -190c-8,-23 4,-49 27,-58z"/>
  <path class="fil0" d="M2152 1412l400 -144c23,-8 49,4 57,27l68 190c9,23 -4,49 -27,58l-364 130c-62,-72 -114,-155 -155,-245 5,-7 12,-13 21,-16z"/>
  <path class="fil0" d="M2304 1694l355 -127c23,-8 49,4 57,27l69 190c8,23 -4,49 -28,57l-188 68c-99,-56 -189,-129 -265,-215z"/>
  <path class="fil0" d="M2774 1526l400 -144c23,-8 49,4 57,27l68 190c9,23 -4,49 -27,58l-400 143c-23,8 -49,-4 -57,-27l-68 -190c-9,-23 4,-49 27,-57z"/>
  <path class="fil0" d="M3289 1341l399 -143c24,-9 50,3 58,27l68 190c8,23 -4,49 -27,57l-400 143c-23,9 -49,-3 -57,-27l-69 -189c-8,-24 4,-50 28,-58z"/>
 </g>
</svg>
