<svg id="Camada_1" data-name="Camada 1" xmlns="http://www.w3.org/2000/svg" viewBox="0 0 717.67 187.88"><defs><style>.cls-1{fill:#fff;}</style></defs><title>Horizontal White</title><path class="cls-1" d="M206.81,67.47a3.89,3.89,0,0,1-3.89-3.89,55.81,55.81,0,0,0-111.61,0,3.89,3.89,0,0,1-7.78,0,1.41,1.41,0,0,1,0-.2,63.58,63.58,0,0,1,127.16.2A3.89,3.89,0,0,1,206.81,67.47Z"/><path class="cls-1" d="M51.65,140.76a3.89,3.89,0,0,1-2.39-6.95A89.35,89.35,0,0,0,81.31,83.42a3.89,3.89,0,1,1,7.58,1.72,97.06,97.06,0,0,1-34.84,54.79A3.89,3.89,0,0,1,51.65,140.76Z"/><path class="cls-1" d="M98.77,187.88a3.89,3.89,0,0,1-2.54-6.83A155.17,155.17,0,0,0,150,63.58c0-.12,0-.24,0-.36a2.92,2.92,0,0,0-5.81.36,151.23,151.23,0,0,1-3,30.23,3.89,3.89,0,1,1-7.62-1.56,143.07,143.07,0,0,0,2.89-28.67,10.7,10.7,0,0,1,21.39,0,3.43,3.43,0,0,1,0,.56,162.93,162.93,0,0,1-56.45,122.79A3.89,3.89,0,0,1,98.77,187.88Z"/><path class="cls-1" d="M89.24,178.34a3.89,3.89,0,0,1-2.53-6.84,142.48,142.48,0,0,0,41.06-59,3.89,3.89,0,0,1,7.31,2.68,150.26,150.26,0,0,1-43.32,62.23A3.84,3.84,0,0,1,89.24,178.34Z"/><path class="cls-1" d="M79.85,169a3.89,3.89,0,0,1-2.5-6.86A128.57,128.57,0,0,0,123.2,63.58v-.15a23.92,23.92,0,0,1,47.83.15,175.9,175.9,0,0,1-25.52,91.33,3.89,3.89,0,1,1-6.65-4,168.11,168.11,0,0,0,24.4-87.29,16.14,16.14,0,1,0-32.28,0v.14A136.34,136.34,0,0,1,82.36,168.05,3.9,3.9,0,0,1,79.85,169Z"/><path class="cls-1" d="M70.41,159.61a3.89,3.89,0,0,1-2.48-6.88A115.23,115.23,0,0,0,110,63.58v-.2a37.14,37.14,0,0,1,74.28.2,189,189,0,0,1-10.75,63,3.89,3.89,0,1,1-7.33-2.59,181.4,181.4,0,0,0,10.3-60.36,29.36,29.36,0,1,0-58.72,0,1.27,1.27,0,0,1,0,.2,123,123,0,0,1-44.86,94.94A3.89,3.89,0,0,1,70.41,159.61Z"/><path class="cls-1" d="M189.09,109.61a3.9,3.9,0,0,1-3.81-4.71,196.41,196.41,0,0,0,4.42-41.32,42.66,42.66,0,0,0-5.77-21.43,3.89,3.89,0,1,1,6.71-3.92,50.28,50.28,0,0,1,6.84,25.35,203.9,203.9,0,0,1-4.6,43A3.87,3.87,0,0,1,189.09,109.61Z"/><path class="cls-1" d="M94.92,101.93a4,4,0,0,1-1.26-.21,3.9,3.9,0,0,1-2.42-4.94,101.91,101.91,0,0,0,5.51-33.2,2.18,2.18,0,0,1,0-.25,50.37,50.37,0,0,1,78.46-41.55,3.89,3.89,0,1,1-4.35,6.45,42.59,42.59,0,0,0-66.33,35.35c0,.09,0,.17,0,.25A109.82,109.82,0,0,1,98.6,99.3,3.88,3.88,0,0,1,94.92,101.93Z"/><path class="cls-1" d="M61.07,150.17a3.89,3.89,0,0,1-2.45-6.91,102.46,102.46,0,0,0,23.2-26.44,3.89,3.89,0,0,1,6.64,4.05,110,110,0,0,1-25,28.44A3.84,3.84,0,0,1,61.07,150.17Z"/><path class="cls-1" d="M42.22,131.33a3.89,3.89,0,0,1-2.33-7A75.25,75.25,0,0,0,70.3,63.58c0-.1,0-.21,0-.31A76.47,76.47,0,0,1,91.72,10.38a3.89,3.89,0,1,1,5.61,5.39A68.7,68.7,0,0,0,78.09,63.58c0,.11,0,.21,0,.31a83,83,0,0,1-33.53,66.66A3.91,3.91,0,0,1,42.22,131.33Z"/><path class="cls-1" d="M32.75,121.86a3.89,3.89,0,0,1-2.24-7.07A62.77,62.77,0,0,0,57.08,63.58c0-.11,0-.23,0-.34a90,90,0,0,1,22-58.67A3.89,3.89,0,0,1,85,9.67,82.22,82.22,0,0,0,64.87,63.58c0,.12,0,.23,0,.35A70.54,70.54,0,0,1,35,121.15,3.86,3.86,0,0,1,32.75,121.86Z"/><path class="cls-1" d="M58.53,22.43a3.9,3.9,0,0,1-3.47-5.66,104.21,104.21,0,0,1,9.34-15,3.89,3.89,0,0,1,6.23,4.66A95.92,95.92,0,0,0,62,20.31,3.89,3.89,0,0,1,58.53,22.43Z"/><path class="cls-1" d="M23.23,112.33a3.89,3.89,0,0,1-2.11-7.16A49.88,49.88,0,0,0,40.56,81.36a49.35,49.35,0,0,0,3.29-17.78c0-.12,0-.24,0-.37A103.59,103.59,0,0,1,47,38.36a3.89,3.89,0,0,1,7.55,1.9,95.53,95.53,0,0,0-2.87,23.32c0,.13,0,.25,0,.38a57.11,57.11,0,0,1-3.81,20.19,57.81,57.81,0,0,1-22.49,27.57A3.93,3.93,0,0,1,23.23,112.33Z"/><path class="cls-1" d="M14.29,102.29A3.89,3.89,0,0,1,12.36,95,36.28,36.28,0,0,0,30.63,63.58c0-.13,0-.26,0-.39A116.3,116.3,0,0,1,47.57,3.08a3.89,3.89,0,0,1,6.65,4.05,108.48,108.48,0,0,0-15.8,56.45,2.61,2.61,0,0,1,0,.4,44.06,44.06,0,0,1-22.19,37.8A3.84,3.84,0,0,1,14.29,102.29Z"/><path class="cls-1" d="M23,46.69a4.87,4.87,0,0,1-.65,0,3.89,3.89,0,0,1-3.19-4.48,128.79,128.79,0,0,1,9.46-31.43,3.89,3.89,0,1,1,7.1,3.17,121,121,0,0,0-8.89,29.54A3.9,3.9,0,0,1,23,46.69Z"/><path class="cls-1" d="M7.8,90.76A3.89,3.89,0,0,1,5.86,83.5,23,23,0,0,0,17.4,63.58a3.9,3.9,0,0,1,7.79,0c0,.11,0,.21,0,.31A30.84,30.84,0,0,1,9.73,90.25,3.85,3.85,0,0,1,7.8,90.76Z"/><path class="cls-1" d="M3.89,77.29a3.85,3.85,0,0,1-2.8-1.2,3.9,3.9,0,0,1,.1-5.5,9.63,9.63,0,0,0,3-7c0-.14,0-.29,0-.43A143.57,143.57,0,0,1,7.65,32.23a3.89,3.89,0,1,1,7.59,1.7A136.26,136.26,0,0,0,12,63.58a3.64,3.64,0,0,1,0,.48A17.33,17.33,0,0,1,6.58,76.2,3.84,3.84,0,0,1,3.89,77.29Z"/><path class="cls-1" d="M263.71,45.43v7.92c4.68-5.52,10.44-8.88,18.48-8.88,8.64,0,14.16,3.72,16.92,9.72,4-5.4,10.32-9.72,20.28-9.72,13.92,0,20.16,8.4,20.16,21v39.24H325.63V68.47c0-6.72-2.88-12-10.56-12-6.24,0-10.68,3.6-13.44,9.12v39.12H287.71V68.47c0-6.72-3-12-10.56-12-6,0-10.56,3.48-13.44,8.76v39.48H249.79V45.43Z"/><path class="cls-1" d="M408.19,75.07c0,19.56-12.24,30.6-28.44,30.6s-28.32-11-28.32-30.6,12.24-30.6,28.32-30.6S408.19,55.51,408.19,75.07Zm-42.36,0c0,14.52,6.48,20.28,13.92,20.28s14-5.76,14-20.28-6.48-20.16-14-20.16S365.83,60.55,365.83,75.07Z"/><path class="cls-1" d="M434,104.71H420.07V45.43H434v7.92c4.68-5.52,10.44-8.88,18.48-8.88,13.2,0,19.44,8.4,19.44,21v39.24H458V68.47c0-6.72-3-12-10.56-12-6,0-10.56,3.48-13.44,8.76Z"/><path class="cls-1" d="M502.27,27.79a8.29,8.29,0,0,1-16.56,0,8.29,8.29,0,0,1,16.56,0ZM501,45.43v59.28H487V45.43Z"/><path class="cls-1" d="M531.91,30.79V45.43h12.6V56.35h-12.6V82.63c0,8.52,1.56,11.88,7.32,11.88a15.22,15.22,0,0,0,7.32-2l3.36,9.48A33.53,33.53,0,0,1,535,105.67c-14.64,0-17-9.84-17-20.52V56.35h-7.8V45.43H518V31.63Z"/><path class="cls-1" d="M610.51,75.07c0,19.56-12.24,30.6-28.44,30.6s-28.32-11-28.32-30.6,12.24-30.6,28.32-30.6S610.51,55.51,610.51,75.07Zm-42.36,0c0,14.52,6.48,20.28,13.92,20.28s14-5.76,14-20.28-6.48-20.16-14-20.16S568.15,60.55,568.15,75.07Z"/><path class="cls-1" d="M635.71,104.71H621.79V45.43h13.92v9.36c3.24-5.52,9.72-10.32,17.4-10.32a20.25,20.25,0,0,1,6.72,1.2l-3.12,10.8a23.17,23.17,0,0,0-5-.48c-8,0-13.44,4.44-16,11Z"/><path class="cls-1" d="M703.75,51.19V45.43h13.92v59.28H703.75V99c-3.6,4.08-8.88,6.72-16.2,6.72-15.48,0-26.28-11.88-26.28-30.48s10.8-30.72,26.28-30.72C694.87,44.47,700.15,47.11,703.75,51.19ZM690.67,95.35c6,0,10.32-3.12,13.08-7.92V62.71c-2.76-4.68-7.08-7.92-13.08-7.92-7.56,0-15,5.88-15,20.4S683.11,95.35,690.67,95.35Z"/><path class="cls-1" d="M259.31,150.36v8.94h-3V136.45h8.43a8.46,8.46,0,0,1,5.88,1.92,7.24,7.24,0,0,1,0,10.19,8.86,8.86,0,0,1-6,1.8Zm0-2.47h5.41a5.44,5.44,0,0,0,3.71-1.14,4.18,4.18,0,0,0,1.28-3.29,4.34,4.34,0,0,0-1.28-3.27,5.07,5.07,0,0,0-3.54-1.27h-5.58Z"/><path class="cls-1" d="M296.2,150.06h-5.37v9.24h-3V136.45h7.57a9,9,0,0,1,5.94,1.76,6.35,6.35,0,0,1,2.08,5.12,6.16,6.16,0,0,1-1.16,3.72,7,7,0,0,1-3.21,2.37l5.37,9.69v.19h-3.23Zm-5.37-2.47h4.63a5.18,5.18,0,0,0,3.57-1.16,3.94,3.94,0,0,0,1.33-3.11,4.17,4.17,0,0,0-1.27-3.26,5.37,5.37,0,0,0-3.65-1.14h-4.61Z"/><path class="cls-1" d="M331.77,148.74h-9.9v8.1h11.5v2.46H318.85V136.45h14.36v2.47H321.87v7.36h9.9Z"/><path class="cls-1" d="M355.1,149.12a14.21,14.21,0,0,1-5.64-2.74,5.22,5.22,0,0,1-1.77-4,5.51,5.51,0,0,1,2.16-4.46,8.57,8.57,0,0,1,5.61-1.77,9.33,9.33,0,0,1,4.2.91,6.94,6.94,0,0,1,2.86,2.51,6.46,6.46,0,0,1,1,3.5h-3a4.17,4.17,0,0,0-1.32-3.27,5.38,5.38,0,0,0-3.72-1.19,5.45,5.45,0,0,0-3.47,1,3.24,3.24,0,0,0-1.25,2.72,2.93,2.93,0,0,0,1.18,2.37,11.85,11.85,0,0,0,4,1.77,18.56,18.56,0,0,1,4.45,1.76,6.79,6.79,0,0,1,2.39,2.26,5.72,5.72,0,0,1,.78,3,5.33,5.33,0,0,1-2.17,4.44,9.18,9.18,0,0,1-5.79,1.68,10.75,10.75,0,0,1-4.39-.91,7.38,7.38,0,0,1-3.15-2.47,6,6,0,0,1-1.11-3.56h3a3.93,3.93,0,0,0,1.53,3.27,6.44,6.44,0,0,0,4.09,1.2,5.93,5.93,0,0,0,3.66-1,3.18,3.18,0,0,0,1.27-2.65,3.12,3.12,0,0,0-1.18-2.6A13.45,13.45,0,0,0,355.1,149.12Z"/><path class="cls-1" d="M385.42,149.12a14.19,14.19,0,0,1-5.65-2.74,5.25,5.25,0,0,1-1.76-4,5.51,5.51,0,0,1,2.16-4.46,8.57,8.57,0,0,1,5.61-1.77,9.25,9.25,0,0,1,4.19.91,6.88,6.88,0,0,1,2.86,2.51,6.37,6.37,0,0,1,1,3.5h-3a4.16,4.16,0,0,0-1.31-3.27,5.38,5.38,0,0,0-3.72-1.19,5.46,5.46,0,0,0-3.48,1,3.27,3.27,0,0,0-1.25,2.72,2.94,2.94,0,0,0,1.19,2.37,11.78,11.78,0,0,0,4,1.77,18.66,18.66,0,0,1,4.46,1.76,6.75,6.75,0,0,1,2.38,2.26,5.72,5.72,0,0,1,.78,3,5.31,5.31,0,0,1-2.17,4.44,9.18,9.18,0,0,1-5.79,1.68,10.78,10.78,0,0,1-4.39-.91,7.38,7.38,0,0,1-3.15-2.47,6.06,6.06,0,0,1-1.1-3.56h3a3.93,3.93,0,0,0,1.53,3.27,6.43,6.43,0,0,0,4.08,1.2,5.93,5.93,0,0,0,3.66-1,3.15,3.15,0,0,0,1.27-2.65,3.09,3.09,0,0,0-1.18-2.6A13.37,13.37,0,0,0,385.42,149.12Z"/><path class="cls-1" d="M421.62,153.32H412l-2.15,6h-3.1l8.72-22.85h2.64l8.74,22.85H423.8Zm.84-22.49a3.92,3.92,0,0,1-1,2.75,3.15,3.15,0,0,1-2.41,1,3.63,3.63,0,0,1-1.11-.15,6,6,0,0,1-1.24-.65,5.37,5.37,0,0,0-1.1-.59,2.94,2.94,0,0,0-.77-.1,1.44,1.44,0,0,0-1.1.5,1.81,1.81,0,0,0-.46,1.26l-1.94-.11a4.08,4.08,0,0,1,.95-2.78,3,3,0,0,1,2.41-1.1,3.11,3.11,0,0,1,1,.16,8,8,0,0,1,1.19.61,7.24,7.24,0,0,0,1.15.6,2.77,2.77,0,0,0,.89.14,1.42,1.42,0,0,0,1.12-.53,1.88,1.88,0,0,0,.45-1.24Zm-9.51,20h7.77l-3.89-10.69Z"/><path class="cls-1" d="M458.79,148.62a14.21,14.21,0,0,1-1.13,5.86,8.54,8.54,0,0,1-3.2,3.82,8.84,8.84,0,0,1-12.86-3.79,13.56,13.56,0,0,1-1.19-5.69v-1.65a13.83,13.83,0,0,1,1.15-5.82,9,9,0,0,1,12.87-3.88,8.47,8.47,0,0,1,3.23,3.84,14.25,14.25,0,0,1,1.13,5.86Zm-3-1.48a10.24,10.24,0,0,0-1.63-6.24,5.38,5.38,0,0,0-4.57-2.17,5.31,5.31,0,0,0-4.49,2.17,10,10,0,0,0-1.69,6v1.68a10.24,10.24,0,0,0,1.66,6.19,5.79,5.79,0,0,0,9.07.12,10.18,10.18,0,0,0,1.65-6.1Z"/><path class="cls-1" d="M506.38,153.32h-9.57l-2.15,6h-3.11l8.72-22.85h2.64l8.74,22.85h-3.09Zm-8.66-2.46h7.76l-3.89-10.69Z"/><path class="cls-1" d="M534.35,150.06H529v9.24h-3V136.45h7.56a8.94,8.94,0,0,1,5.94,1.76,6.32,6.32,0,0,1,2.08,5.12,6.16,6.16,0,0,1-1.15,3.72,7,7,0,0,1-3.21,2.37l5.37,9.69v.19h-3.24ZM529,147.59h4.63a5.22,5.22,0,0,0,3.57-1.16,3.93,3.93,0,0,0,1.32-3.11,4.16,4.16,0,0,0-1.26-3.26,5.37,5.37,0,0,0-3.65-1.14H529Z"/><path class="cls-1" d="M571.54,138.92H564.2V159.3h-3V138.92h-7.33v-2.47h17.67Z"/><path class="cls-1" d="M599.1,148.74h-9.91v8.1H600.7v2.46H586.18V136.45h14.36v2.47H589.19v7.36h9.91Z"/><path class="cls-1" d="M624.08,150.06h-5.37v9.24h-3V136.45h7.56a8.94,8.94,0,0,1,5.94,1.76,6.32,6.32,0,0,1,2.08,5.12,6.16,6.16,0,0,1-1.15,3.72,7,7,0,0,1-3.21,2.37l5.37,9.69v.19H629Zm-5.37-2.47h4.63a5.22,5.22,0,0,0,3.57-1.16,3.93,3.93,0,0,0,1.32-3.11,4.16,4.16,0,0,0-1.26-3.26,5.37,5.37,0,0,0-3.65-1.14h-4.61Z"/><path class="cls-1" d="M650,159.3h-3V136.45h3Z"/><path class="cls-1" d="M679.34,153.32h-9.57l-2.15,6h-3.11l8.72-22.85h2.64l8.74,22.85h-3.09Zm-8.66-2.46h7.76l-3.89-10.69Z"/><path class="cls-1" d="M702,156.84h10.82v2.46H698.94V136.45h3Z"/></svg>