<svg id="Camada_1" data-name="Camada 1" xmlns="http://www.w3.org/2000/svg" xmlns:xlink="http://www.w3.org/1999/xlink" viewBox="0 0 386.11 344.29"><defs><style>.cls-1{fill:url(#Gradiente_sem_nome_18);}.cls-2{fill:#ccc;}</style><radialGradient id="Gradiente_sem_nome_18" cx="269.59" cy="61.82" r="93.27" gradientUnits="userSpaceOnUse"><stop offset="0" stop-color="#ff776a"/><stop offset="1" stop-color="#ff006a"/></radialGradient></defs><title>Signo</title><path class="cls-1" d="M379,123.64a7.13,7.13,0,0,1-7.13-7.12,102.27,102.27,0,1,0-204.53,0,7.13,7.13,0,0,1-14.26,0c0-.13,0-.25,0-.37a116.52,116.52,0,0,1,233,.37A7.12,7.12,0,0,1,379,123.64Z"/><path class="cls-2" d="M94.66,257.94a7.13,7.13,0,0,1-4.4-12.74A163.58,163.58,0,0,0,149,152.86,7.13,7.13,0,0,1,162.9,156,177.93,177.93,0,0,1,99,256.43,7.08,7.08,0,0,1,94.66,257.94Z"/><path class="cls-2" d="M181,344.29a7.12,7.12,0,0,1-4.67-12.51,284.34,284.34,0,0,0,98.53-215.26c0-.23,0-.45,0-.67a5.35,5.35,0,0,0-10.65.67,276.53,276.53,0,0,1-5.59,55.39,7.12,7.12,0,0,1-14-2.86,262.08,262.08,0,0,0,5.3-52.53,19.6,19.6,0,1,1,39.19,0,6.9,6.9,0,0,1-.07,1,298.52,298.52,0,0,1-103.46,225A7.11,7.11,0,0,1,181,344.29Z"/><path class="cls-2" d="M163.53,326.82a7.13,7.13,0,0,1-4.64-12.54,261.18,261.18,0,0,0,75.26-108.13,7.13,7.13,0,0,1,13.38,4.91,275.34,275.34,0,0,1-79.37,114A7.12,7.12,0,0,1,163.53,326.82Z"/><path class="cls-2" d="M146.33,309.62a7.12,7.12,0,0,1-4.59-12.57,235.57,235.57,0,0,0,84-180.53v-.29a43.83,43.83,0,0,1,87.66.29,322.35,322.35,0,0,1-46.78,167.36,7.13,7.13,0,1,1-12.18-7.4,308.14,308.14,0,0,0,44.7-160,29.58,29.58,0,1,0-59.15,0v.27A249.82,249.82,0,0,1,150.92,308,7.14,7.14,0,0,1,146.33,309.62Z"/><path class="cls-2" d="M129,292.5a7.13,7.13,0,0,1-4.54-12.63,211.13,211.13,0,0,0,77-163.35c0-.12,0-.24,0-.36a68.06,68.06,0,0,1,136.11.36A346.41,346.41,0,0,1,318,231.86a7.13,7.13,0,1,1-13.45-4.73A332.08,332.08,0,0,0,323.4,116.52a53.81,53.81,0,1,0-107.61,0c0,.11,0,.23,0,.34a225.34,225.34,0,0,1-82.22,174A7.1,7.1,0,0,1,129,292.5Z"/><path class="cls-2" d="M346.5,200.87a7.91,7.91,0,0,1-1.51-.16,7.14,7.14,0,0,1-5.46-8.47,359.3,359.3,0,0,0,8.1-75.72,78,78,0,0,0-10.58-39.27,7.13,7.13,0,1,1,12.31-7.19,92.32,92.32,0,0,1,12.52,46.46,373.65,373.65,0,0,1-8.42,78.72A7.13,7.13,0,0,1,346.5,200.87Z"/><path class="cls-2" d="M174,186.79a6.88,6.88,0,0,1-2.31-.39,7.12,7.12,0,0,1-4.43-9.05,187.27,187.27,0,0,0,10.09-60.83c0-.15,0-.3,0-.45A92.3,92.3,0,0,1,321.09,39.92a7.13,7.13,0,1,1-8,11.82,78,78,0,0,0-121.57,64.78c0,.14,0,.29,0,.43a201.38,201.38,0,0,1-10.86,65A7.12,7.12,0,0,1,174,186.79Z"/><path class="cls-2" d="M111.9,275.19a7.12,7.12,0,0,1-4.47-12.67,187.93,187.93,0,0,0,42.51-48.44,7.13,7.13,0,0,1,12.17,7.42,201.94,201.94,0,0,1-45.74,52.11A7,7,0,0,1,111.9,275.19Z"/><path class="cls-2" d="M77.37,240.66a7.13,7.13,0,0,1-4.28-12.83,140.4,140.4,0,0,0,40.57-48.1,137.4,137.4,0,0,0,15.17-63.21c0-.19,0-.38,0-.56A140,140,0,0,1,168.08,19a7.13,7.13,0,0,1,10.28,9.87,125.89,125.89,0,0,0-35.26,87.62,5.06,5.06,0,0,1,0,.55,151.46,151.46,0,0,1-16.74,69.16,154.57,154.57,0,0,1-44.7,53A7.1,7.1,0,0,1,77.37,240.66Z"/><path class="cls-2" d="M60,223.31a7.13,7.13,0,0,1-4.11-12.95,115,115,0,0,0,48.69-93.84c0-.21,0-.42,0-.62A164.92,164.92,0,0,1,145,8.38a7.13,7.13,0,1,1,10.76,9.35,150.62,150.62,0,0,0-36.89,98.79c0,.21,0,.42,0,.62A129.29,129.29,0,0,1,64.12,222,7.09,7.09,0,0,1,60,223.31Z"/><path class="cls-2" d="M107.25,41.1a7.11,7.11,0,0,1-6.34-10.36A189.13,189.13,0,0,1,118,3.27a7.13,7.13,0,1,1,11.42,8.54,174.89,174.89,0,0,0-15.82,25.4A7.13,7.13,0,0,1,107.25,41.1Z"/><path class="cls-2" d="M42.57,205.85a7.12,7.12,0,0,1-3.86-13.12,91.42,91.42,0,0,0,35.62-43.65,90.14,90.14,0,0,0,6-32.56c0-.23,0-.46,0-.68A190.13,190.13,0,0,1,86.08,70.3,7.12,7.12,0,1,1,99.9,73.77a175.62,175.62,0,0,0-5.26,42.75c0,.23,0,.46,0,.68a104.39,104.39,0,0,1-7,37,105.76,105.76,0,0,1-41.22,50.51A7,7,0,0,1,42.57,205.85Z"/><path class="cls-2" d="M26.18,187.45a7.13,7.13,0,0,1-3.53-13.32,66.48,66.48,0,0,0,33.48-57.61q0-.36,0-.72a213,213,0,0,1,31-110.15,7.13,7.13,0,0,1,12.18,7.41A198.76,198.76,0,0,0,70.41,116.52c0,.25,0,.49,0,.73a80.79,80.79,0,0,1-40.67,69.26A7.05,7.05,0,0,1,26.18,187.45Z"/><path class="cls-2" d="M42.2,85.56a6.8,6.8,0,0,1-1.18-.1,7.12,7.12,0,0,1-5.86-8.2A236.33,236.33,0,0,1,52.5,19.66a7.13,7.13,0,0,1,13,5.81A222,222,0,0,0,49.22,79.6,7.13,7.13,0,0,1,42.2,85.56Z"/><path class="cls-2" d="M14.3,166.33A7.13,7.13,0,0,1,10.74,153a42.2,42.2,0,0,0,21.15-36.5,7.14,7.14,0,0,1,14.28,0,5.12,5.12,0,0,1,0,.56,56.48,56.48,0,0,1-28.3,48.3A7.13,7.13,0,0,1,14.3,166.33Z"/><path class="cls-2" d="M7.13,141.63a7.13,7.13,0,0,1-4.94-12.27,17.65,17.65,0,0,0,5.47-12.84,6.85,6.85,0,0,1,0-.79A263.54,263.54,0,0,1,14,59.06a7.13,7.13,0,1,1,13.91,3.11,249.1,249.1,0,0,0-6,54.35,6.49,6.49,0,0,1-.05.88,31.76,31.76,0,0,1-9.84,22.24A7.09,7.09,0,0,1,7.13,141.63Z"/></svg>