<?xml version="1.0" encoding="UTF-8"?>
<!DOCTYPE svg PUBLIC "-//W3C//DTD SVG 1.0//EN" "http://www.w3.org/TR/2001/REC-SVG-20010904/DTD/svg10.dtd">
<!-- Creator: CorelDRAW 2018 (64 Bit Versão de avaliação) -->
<svg xmlns="http://www.w3.org/2000/svg" xml:space="preserve" width="140px" height="150px" version="1.0" style="shape-rendering:geometricPrecision; text-rendering:geometricPrecision; image-rendering:optimizeQuality; fill-rule:evenodd; clip-rule:evenodd"
viewBox="0 0 16.09 17.26"
 xmlns:xlink="http://www.w3.org/1999/xlink">
 <defs>
  <style type="text/css">
   <![CDATA[
    .fil1 {fill:#FEFEFE}
    .fil0 {fill:#FEFEFE}
   ]]>
  </style>
 </defs>
 <g id="Camada_x0020_1">
  <metadata id="CorelCorpID_0Corel-Layer"/>
  <g id="_1542798968576">
   <path class="fil0" d="M3.76 5.69l3.62 -1.3c0.21,-0.07 0.44,0.04 0.52,0.25l0.61 1.71c0.08,0.22 -0.03,0.45 -0.24,0.52l-3.62 1.3c-0.21,0.08 -0.44,-0.03 -0.52,-0.24l-0.61 -1.72c-0.08,-0.21 0.03,-0.44 0.24,-0.52z"/>
   <path class="fil0" d="M8.42 4.02l3.61 -1.3c0.21,-0.07 0.44,0.04 0.52,0.25l0.61 1.72c0.08,0.21 -0.03,0.44 -0.24,0.52l-3.61 1.29c-0.21,0.08 -0.45,-0.03 -0.52,-0.24l-0.62 -1.72c-0.08,-0.21 0.04,-0.44 0.25,-0.52z"/>
   <path class="fil0" d="M5.7 11.09l3.61 -1.3c0.21,-0.07 0.45,0.04 0.52,0.25l0.62 1.72c0.08,0.21 -0.04,0.44 -0.25,0.52l-3.61 1.29c-0.21,0.08 -0.44,-0.03 -0.52,-0.24l-0.61 -1.72c-0.08,-0.21 0.03,-0.44 0.24,-0.52z"/>
   <path class="fil0" d="M10.35 9.42l3.62 -1.29c0.21,-0.08 0.44,0.03 0.52,0.24l0.61 1.72c0.08,0.21 -0.03,0.44 -0.24,0.52l-3.62 1.29c-0.21,0.08 -0.44,-0.03 -0.52,-0.24l-0.61 -1.72c-0.08,-0.21 0.03,-0.44 0.24,-0.52z"/>
   <path class="fil1" d="M1.82 3.34c0.2,-0.03 0.39,0.08 0.46,0.27l0.61 1.71c0.08,0.21 -0.03,0.45 -0.25,0.52l-2.37 0.85c0.3,-1.2 0.83,-2.34 1.55,-3.35z"/>
   <path class="fil1" d="M2.79 2.99l3.62 -1.3c0.21,-0.07 0.44,0.04 0.52,0.25l0.61 1.71c0.08,0.21 -0.03,0.45 -0.24,0.52l-3.62 1.3c-0.21,0.08 -0.44,-0.03 -0.52,-0.25l-0.61 -1.71c-0.08,-0.21 0.03,-0.45 0.24,-0.52z"/>
   <path class="fil1" d="M7.45 1.32l3.61 -1.3c0.21,-0.07 0.45,0.04 0.52,0.25l0.62 1.71c0.07,0.22 -0.04,0.45 -0.25,0.53l-3.61 1.29c-0.21,0.08 -0.45,-0.03 -0.52,-0.24l-0.62 -1.72c-0.07,-0.21 0.04,-0.44 0.25,-0.52z"/>
   <path class="fil1" d="M0.21 6.96l2.51 -0.9c0.21,-0.07 0.45,0.04 0.52,0.25l0.62 1.71c0.07,0.21 -0.04,0.45 -0.25,0.52l-3.57 1.29c-0.09,-0.97 -0.03,-1.94 0.17,-2.87z"/>
   <path class="fil1" d="M0.08 10.06l3.61 -1.3c0.21,-0.07 0.45,0.04 0.52,0.25l0.62 1.71c0.07,0.21 -0.04,0.45 -0.25,0.52l-3.61 1.3c-0.09,0.03 -0.19,0.03 -0.27,0 -0.05,-0.11 -0.09,-0.23 -0.14,-0.35 -0.25,-0.7 -0.41,-1.42 -0.5,-2.13l0.02 0z"/>
   <path class="fil1" d="M4.73 8.39l3.61 -1.3c0.22,-0.07 0.45,0.04 0.53,0.25l0.61 1.71c0.08,0.22 -0.03,0.45 -0.24,0.53l-3.62 1.29c-0.21,0.08 -0.44,-0.03 -0.52,-0.24l-0.61 -1.72c-0.08,-0.21 0.03,-0.44 0.24,-0.52z"/>
   <path class="fil1" d="M9.38 6.72l3.62 -1.3c0.21,-0.07 0.44,0.04 0.52,0.25l0.61 1.72c0.08,0.21 -0.03,0.44 -0.24,0.52l-3.61 1.29c-0.22,0.08 -0.45,-0.03 -0.53,-0.24l-0.61 -1.72c-0.08,-0.21 0.03,-0.44 0.24,-0.52z"/>
   <path class="fil1" d="M1.05 12.76l3.61 -1.3c0.21,-0.07 0.45,0.04 0.52,0.25l0.62 1.71c0.07,0.21 -0.04,0.45 -0.25,0.52l-3.29 1.19c-0.56,-0.66 -1.04,-1.41 -1.41,-2.22 0.05,-0.07 0.12,-0.12 0.2,-0.15z"/>
   <path class="fil1" d="M2.42 15.32l3.21 -1.16c0.21,-0.07 0.44,0.04 0.52,0.25l0.62 1.71c0.07,0.22 -0.04,0.45 -0.25,0.53l-1.71 0.61c-0.89,-0.51 -1.7,-1.17 -2.39,-1.94z"/>
   <path class="fil1" d="M6.67 13.79l3.61 -1.3c0.21,-0.07 0.45,0.04 0.52,0.25l0.62 1.72c0.07,0.21 -0.04,0.44 -0.25,0.52l-3.61 1.29c-0.21,0.08 -0.45,-0.03 -0.52,-0.24l-0.62 -1.72c-0.07,-0.21 0.04,-0.44 0.25,-0.52z"/>
   <path class="fil1" d="M11.32 12.12l3.62 -1.29c0.21,-0.08 0.44,0.03 0.52,0.24l0.61 1.72c0.08,0.21 -0.03,0.44 -0.24,0.52l-3.62 1.29c-0.21,0.08 -0.44,-0.03 -0.52,-0.24l-0.61 -1.72c-0.08,-0.21 0.03,-0.44 0.24,-0.52z"/>
  </g>
 </g>
</svg>
